<svg width="160" height="27" viewBox="0 0 160 27" fill="none" xmlns="http://www.w3.org/2000/svg">
<path d="M1.024 26C0.76 26 0.544 25.916 0.376 25.748C0.208 25.58 0.124 25.364 0.124 25.1V1.34C0.124 1.076 0.208 0.859999 0.376 0.692C0.544 0.523999 0.76 0.439999 1.024 0.439999H5.632C5.896 0.439999 6.112 0.523999 6.28 0.692C6.448 0.859999 6.532 1.076 6.532 1.34V9.368C7.18 8.624 7.972 8.036 8.908 7.604C9.868 7.148 10.972 6.92 12.22 6.92C13.612 6.92 14.848 7.232 15.928 7.856C17.032 8.48 17.896 9.404 18.52 10.628C19.144 11.828 19.456 13.304 19.456 15.056V25.1C19.456 25.364 19.372 25.58 19.204 25.748C19.036 25.916 18.82 26 18.556 26H13.912C13.672 26 13.456 25.916 13.264 25.748C13.096 25.58 13.012 25.364 13.012 25.1V15.272C13.012 14.144 12.736 13.28 12.184 12.68C11.656 12.056 10.864 11.744 9.808 11.744C8.824 11.744 8.032 12.056 7.432 12.68C6.832 13.28 6.532 14.144 6.532 15.272V25.1C6.532 25.364 6.448 25.58 6.28 25.748C6.112 25.916 5.896 26 5.632 26H1.024ZM29.1541 26.36C27.8581 26.36 26.6941 26.12 25.6621 25.64C24.6541 25.136 23.8501 24.464 23.2501 23.624C22.6501 22.784 22.3501 21.836 22.3501 20.78C22.3501 19.076 23.0461 17.732 24.4381 16.748C25.8301 15.74 27.6781 15.056 29.9821 14.696L34.4821 14.012V13.508C34.4821 12.644 34.3021 11.984 33.9421 11.528C33.5821 11.072 32.9221 10.844 31.9621 10.844C31.2901 10.844 30.7381 10.976 30.3061 11.24C29.8981 11.504 29.5741 11.864 29.3341 12.32C29.1181 12.632 28.8181 12.788 28.4341 12.788H24.4021C24.1381 12.788 23.9341 12.716 23.7901 12.572C23.6461 12.404 23.5861 12.212 23.6101 11.996C23.6101 11.564 23.7661 11.072 24.0781 10.52C24.4141 9.944 24.9181 9.38 25.5901 8.828C26.2621 8.276 27.1261 7.82 28.1821 7.46C29.2381 7.1 30.5101 6.92 31.9981 6.92C33.5581 6.92 34.8901 7.1 35.9941 7.46C37.0981 7.82 37.9861 8.324 38.6581 8.972C39.3541 9.62 39.8701 10.388 40.2061 11.276C40.5421 12.14 40.7101 13.1 40.7101 14.156V25.1C40.7101 25.364 40.6141 25.58 40.4221 25.748C40.2541 25.916 40.0501 26 39.8101 26H35.6341C35.3701 26 35.1541 25.916 34.9861 25.748C34.8181 25.58 34.7341 25.364 34.7341 25.1V23.84C34.4221 24.296 34.0021 24.716 33.4741 25.1C32.9461 25.484 32.3221 25.784 31.6021 26C30.9061 26.24 30.0901 26.36 29.1541 26.36ZM30.8461 22.256C31.5421 22.256 32.1661 22.112 32.7181 21.824C33.2941 21.512 33.7381 21.044 34.0501 20.42C34.3861 19.772 34.5541 18.968 34.5541 18.008V17.504L31.4941 18.044C30.3661 18.236 29.5381 18.536 29.0101 18.944C28.5061 19.328 28.2541 19.784 28.2541 20.312C28.2541 20.72 28.3741 21.068 28.6141 21.356C28.8541 21.644 29.1661 21.872 29.5501 22.04C29.9341 22.184 30.3661 22.256 30.8461 22.256ZM45.6724 26C45.4084 26 45.1924 25.916 45.0244 25.748C44.8564 25.58 44.7724 25.364 44.7724 25.1V8.18C44.7724 7.916 44.8564 7.7 45.0244 7.532C45.1924 7.364 45.4084 7.28 45.6724 7.28H49.8124C50.0764 7.28 50.2924 7.364 50.4604 7.532C50.6284 7.7 50.7124 7.916 50.7124 8.18V9.548C51.3364 8.804 52.1524 8.18 53.1604 7.676C54.1684 7.172 55.3564 6.92 56.7244 6.92C58.1164 6.92 59.3404 7.232 60.3964 7.856C61.4764 8.48 62.3164 9.404 62.9164 10.628C63.5404 11.828 63.8524 13.304 63.8524 15.056V25.1C63.8524 25.364 63.7564 25.58 63.5644 25.748C63.3964 25.916 63.1924 26 62.9524 26H58.4164C58.1764 26 57.9604 25.916 57.7684 25.748C57.6004 25.58 57.5164 25.364 57.5164 25.1V15.272C57.5164 14.144 57.2404 13.28 56.6884 12.68C56.1604 12.056 55.3684 11.744 54.3124 11.744C53.3284 11.744 52.5364 12.056 51.9364 12.68C51.3604 13.28 51.0724 14.144 51.0724 15.272V25.1C51.0724 25.364 50.9764 25.58 50.7844 25.748C50.6164 25.916 50.4124 26 50.1724 26H45.6724ZM74.8541 26.36C73.7021 26.36 72.6581 26.18 71.7221 25.82C70.8101 25.436 70.0181 24.884 69.3461 24.164C68.6981 23.42 68.1941 22.532 67.8341 21.5C67.4741 20.444 67.2701 19.244 67.2221 17.9C67.1981 17.42 67.1861 17 67.1861 16.64C67.1861 16.256 67.1981 15.836 67.2221 15.38C67.2701 14.084 67.4741 12.92 67.8341 11.888C68.1941 10.856 68.6981 9.968 69.3461 9.224C69.9941 8.48 70.7861 7.916 71.7221 7.532C72.6581 7.124 73.7021 6.92 74.8541 6.92C76.0541 6.92 77.0861 7.124 77.9501 7.532C78.8141 7.916 79.5461 8.42 80.1461 9.044V1.34C80.1461 1.076 80.2301 0.859999 80.3981 0.692C80.5661 0.523999 80.7821 0.439999 81.0461 0.439999H85.4381C85.6781 0.439999 85.8821 0.523999 86.0501 0.692C86.2421 0.859999 86.3381 1.076 86.3381 1.34V25.1C86.3381 25.364 86.2421 25.58 86.0501 25.748C85.8821 25.916 85.6781 26 85.4381 26H81.3701C81.1061 26 80.8901 25.916 80.7221 25.748C80.5541 25.58 80.4701 25.364 80.4701 25.1V23.948C79.8941 24.644 79.1501 25.22 78.2381 25.676C77.3261 26.132 76.1981 26.36 74.8541 26.36ZM76.7981 21.536C77.6141 21.536 78.2501 21.368 78.7061 21.032C79.1861 20.672 79.5341 20.216 79.7501 19.664C79.9901 19.112 80.1221 18.512 80.1461 17.864C80.1701 17.384 80.1821 16.928 80.1821 16.496C80.1821 16.064 80.1701 15.62 80.1461 15.164C80.1221 14.564 79.9901 14.012 79.7501 13.508C79.5101 12.98 79.1501 12.56 78.6701 12.248C78.1901 11.912 77.5661 11.744 76.7981 11.744C76.0061 11.744 75.3701 11.912 74.8901 12.248C74.4341 12.584 74.1101 13.04 73.9181 13.616C73.7261 14.192 73.6061 14.828 73.5581 15.524C73.4861 16.268 73.4861 17.012 73.5581 17.756C73.6061 18.452 73.7261 19.088 73.9181 19.664C74.1101 20.24 74.4341 20.696 74.8901 21.032C75.3701 21.368 76.0061 21.536 76.7981 21.536ZM98.285 26.36C96.725 26.36 95.393 26.192 94.289 25.856C93.209 25.496 92.321 25.064 91.625 24.56C90.953 24.056 90.449 23.54 90.113 23.012C89.777 22.46 89.597 21.992 89.573 21.608C89.549 21.344 89.633 21.128 89.825 20.96C90.017 20.768 90.221 20.672 90.437 20.672H94.541C94.613 20.672 94.673 20.684 94.721 20.708C94.769 20.732 94.841 20.78 94.937 20.852C95.249 21.02 95.561 21.236 95.873 21.5C96.185 21.74 96.545 21.956 96.953 22.148C97.361 22.34 97.853 22.436 98.429 22.436C99.101 22.436 99.665 22.304 100.121 22.04C100.577 21.776 100.805 21.38 100.805 20.852C100.805 20.468 100.697 20.156 100.481 19.916C100.265 19.652 99.821 19.4 99.149 19.16C98.501 18.92 97.517 18.68 96.197 18.44C94.949 18.152 93.857 17.78 92.921 17.324C91.985 16.844 91.265 16.232 90.761 15.488C90.257 14.72 90.005 13.796 90.005 12.716C90.005 11.756 90.317 10.832 90.941 9.944C91.565 9.056 92.477 8.336 93.677 7.784C94.877 7.208 96.353 6.92 98.105 6.92C99.497 6.92 100.697 7.088 101.705 7.424C102.737 7.736 103.601 8.144 104.297 8.648C105.017 9.152 105.557 9.668 105.917 10.196C106.277 10.724 106.469 11.204 106.493 11.636C106.517 11.876 106.445 12.092 106.277 12.284C106.109 12.452 105.917 12.536 105.701 12.536H101.957C101.861 12.536 101.765 12.524 101.669 12.5C101.573 12.452 101.489 12.404 101.417 12.356C101.129 12.212 100.841 12.02 100.553 11.78C100.265 11.54 99.929 11.324 99.545 11.132C99.161 10.94 98.681 10.844 98.105 10.844C97.457 10.844 96.953 10.988 96.593 11.276C96.233 11.564 96.053 11.936 96.053 12.392C96.053 12.704 96.149 12.992 96.341 13.256C96.557 13.52 96.977 13.76 97.601 13.976C98.249 14.192 99.245 14.432 100.589 14.696C102.245 14.96 103.565 15.392 104.549 15.992C105.533 16.568 106.229 17.252 106.637 18.044C107.045 18.812 107.249 19.628 107.249 20.492C107.249 21.644 106.901 22.664 106.205 23.552C105.533 24.44 104.525 25.136 103.181 25.64C101.837 26.12 100.205 26.36 98.285 26.36Z" fill="black"/>
<path d="M121.819 26.36C119.515 26.36 117.475 26.012 115.699 25.316C113.947 24.62 112.579 23.54 111.595 22.076C110.611 20.612 110.119 18.752 110.119 16.496V1.772C110.119 1.508 110.215 1.28 110.407 1.088C110.599 0.895998 110.827 0.799998 111.091 0.799998H118.147C118.411 0.799998 118.639 0.895998 118.831 1.088C119.023 1.28 119.119 1.508 119.119 1.772V16.352C119.119 17.24 119.335 17.924 119.767 18.404C120.223 18.884 120.895 19.124 121.783 19.124C122.671 19.124 123.331 18.884 123.763 18.404C124.219 17.924 124.447 17.24 124.447 16.352V1.772C124.447 1.508 124.543 1.28 124.735 1.088C124.927 0.895998 125.155 0.799998 125.419 0.799998H132.475C132.739 0.799998 132.967 0.895998 133.159 1.088C133.351 1.28 133.447 1.508 133.447 1.772V16.496C133.447 18.752 132.955 20.612 131.971 22.076C130.987 23.54 129.619 24.62 127.867 25.316C126.115 26.012 124.099 26.36 121.819 26.36ZM138.167 26C137.903 26 137.675 25.904 137.483 25.712C137.291 25.52 137.195 25.292 137.195 25.028V1.772C137.195 1.508 137.291 1.28 137.483 1.088C137.675 0.895998 137.903 0.799998 138.167 0.799998H149.075C151.259 0.799998 153.155 1.124 154.763 1.772C156.395 2.396 157.655 3.368 158.543 4.688C159.455 5.984 159.911 7.628 159.911 9.62C159.911 11.612 159.455 13.244 158.543 14.516C157.655 15.764 156.395 16.688 154.763 17.288C153.155 17.864 151.259 18.152 149.075 18.152H146.555V25.028C146.555 25.292 146.459 25.52 146.267 25.712C146.075 25.904 145.847 26 145.583 26H138.167ZM146.375 11.492H148.895C149.279 11.492 149.651 11.348 150.011 11.06C150.371 10.748 150.551 10.244 150.551 9.548C150.551 9.092 150.431 8.636 150.191 8.18C149.975 7.724 149.543 7.496 148.895 7.496H146.375V11.492Z" fill="#FF5714"/>
</svg>
